<?xml version="1.0" encoding="UTF-8" standalone="no"?>
<svg
   viewBox="0 0 500 500"
   version="1.1"
   id="svg4"
   sodipodi:docname="New Celestite Beta Logo.svg"
   inkscape:version="1.3.2 (091e20ef0f, 2023-11-25)"
   xmlns:inkscape="http://www.inkscape.org/namespaces/inkscape"
   xmlns:sodipodi="http://sodipodi.sourceforge.net/DTD/sodipodi-0.dtd"
   xmlns="http://www.w3.org/2000/svg"
   xmlns:svg="http://www.w3.org/2000/svg"
   xmlns:bx="https://boxy-svg.com">
  <sodipodi:namedview
     id="namedview4"
     pagecolor="#ffffff"
     bordercolor="#000000"
     borderopacity="0.25"
     inkscape:showpageshadow="2"
     inkscape:pageopacity="0.0"
     inkscape:pagecheckerboard="0"
     inkscape:deskcolor="#d1d1d1"
     inkscape:zoom="1.574"
     inkscape:cx="250"
     inkscape:cy="250"
     inkscape:window-width="1920"
     inkscape:window-height="1000"
     inkscape:window-x="0"
     inkscape:window-y="0"
     inkscape:window-maximized="1"
     inkscape:current-layer="svg4" />
  <defs
     id="defs1" />
  <path
     d="M 245.979 0.993 Q 250 -0.992 254.021 0.993 L 447.05 96.251 Q 451.071 98.236 452.065 102.695 L 499.739 316.739 Q 500.732 321.199 497.949 324.775 L 364.369 496.425 Q 361.586 500.001 357.123 500.001 L 142.877 500.001 Q 138.414 500.001 135.631 496.425 L 2.051 324.775 Q -0.732 321.199 0.261 316.739 L 47.935 102.695 Q 48.929 98.236 52.95 96.251 Z"
     style="paint-order: stroke; fill: rgb(142, 106, 179); stroke: rgb(31, 19, 38);"
     bx:shape="n-gon 250 262.554 257.18 263.546 7 0.02 1@e1a3f0ac"
     id="path1" />
  <path
     d="M 246.783 50.794 Q 250 49.206 253.217 50.794 L 407.64 127.001 Q 410.857 128.588 411.652 132.156 L 449.791 303.391 Q 450.586 306.959 448.359 309.819 L 341.495 447.14 Q 339.269 450.001 335.698 450.001 L 164.302 450.001 Q 160.731 450.001 158.505 447.14 L 51.641 309.819 Q 49.414 306.959 50.209 303.391 L 88.348 132.156 Q 89.143 128.588 92.36 127.001 Z"
     style="stroke: rgb(31, 19, 38); fill: rgb(171, 139, 204);"
     bx:shape="n-gon 250 260.043 205.744 210.837 7 0.02 1@97bec049"
     id="path2" />
  <path
     d="m 292.36798,291.39703 q -9.14358,10.16577 -22.50629,14.82508 -13.8074,4.8146 -28.27746,2.4166 -14.92922,-2.47331 -26.4239,-11.93173 -11.8427,-9.74618 -16.76648,-24.20553 -5.06802,-14.87965 -1.41514,-30.63982 3.75608,-16.19866 15.68203,-28.86394 12.24633,-13.00302 29.73215,-18.70764 17.93682,-5.8499 36.45618,-2.41737 18.97817,3.51692 33.36349,15.81292 14.72836,12.59013 20.60798,30.92851 6.01604,18.76233 1.12794,38.40266 -4.99709,20.08063 -20.01928,35.58769 -15.3454,15.84389 -36.95802,22.59018 -22.06349,6.88794 -44.63398,2.41906 -23.02812,-4.55962 -40.30213,-19.69503 -17.61596,-15.43224 -24.4504,-37.65058 -6.96599,-22.64499 -0.84169,-46.16639 6.23903,-23.9617 24.35652,-42.31145 18.44541,-18.68386 44.18389,-26.47272 26.19206,-7.92598 52.81171,-2.41893 27.07904,5.60142 47.24272,23.57532 20.5026,18.27527 28.29089,44.37446 7.91602,26.52585 0.55545,53.93013 -7.47901,27.84095 -28.69281,49.03429 -21.5454,21.52383 -51.40876,30.35436 -30.3207,8.96583 -60.99142,2.42062 -31.12906,-6.64231 -54.18234,-27.45651 -23.38923,-21.1183 -32.13235,-51.09744 -8.86695,-30.40762 -0.26826,-61.69296 8.71909,-31.72382 33.02913,-55.75895 24.64446,-24.36472 58.63555,-34.236 34.44744,-10.00568 69.16922,-2.4223 35.179,7.68501 61.12096,31.33861 26.27785,23.95951 35.97481,57.81951 9.8188,34.29028 -0.0179,69.45669 -9.95913,35.60489 -37.36732,62.48181 -27.74262,27.20649 -65.8605,38.11944 -38.57508,11.04462 -77.34694,2.42217 -39.231,-8.72408 -68.06157,-35.2189 -29.16546,-26.80162 -39.81528,-64.54338 -10.770739,-38.17115 0.30326,-77.21954 11.19916,-39.48594 41.70457,-69.20555 30.84169,-30.04737 73.08637,-42.00198 42.70273,-12.083568 85.52658,-2.42205 32.26275,7.27949 58.75156,25.95817"
     style="fill:#f3e5f6;stroke:#1f1326;stroke-width:1.31773"
     bx:shape="spiral 212.255 233.471 37.343 124.477 0 1342.621 1@537188dc"
     id="path3" />
  <path
     d="m 409.18912,108.32307 -16.33119,41.83283 8.81893,44.03317 -41.83281,-16.3312 -44.03316,8.81895 16.3312,-41.83283 -8.81894,-44.03317 41.83281,16.33121 z"
     style="fill:#fff0fd;stroke:#1f1326;stroke-width:1.0158"
     bx:shape="star 326.821 159.857 60 60 0.5 4 1@282f9149"
     id="path4" />
</svg>
