<svg xmlns="http://www.w3.org/2000/svg" xmlns:xlink="http://www.w3.org/1999/xlink" width="500" zoomAndPan="magnify" viewBox="0 0 375 374.999991" height="500" preserveAspectRatio="xMidYMid meet" version="1.0"><defs><clipPath id="f7fddfbabb"><path d="M 2.28125 2.453125 L 372.71875 2.453125 L 372.71875 372.890625 L 2.28125 372.890625 Z M 2.28125 2.453125 " clip-rule="nonzero"/></clipPath><clipPath id="3a7d32143d"><path d="M 187.5 2.453125 C 85.207031 2.453125 2.28125 85.378906 2.28125 187.671875 C 2.28125 289.964844 85.207031 372.890625 187.5 372.890625 C 289.792969 372.890625 372.71875 289.964844 372.71875 187.671875 C 372.71875 85.378906 289.792969 2.453125 187.5 2.453125 Z M 187.5 2.453125 " clip-rule="nonzero"/></clipPath><clipPath id="f4adbdf824"><path d="M 25 14 L 352 14 L 352 364 L 25 364 Z M 25 14 " clip-rule="nonzero"/></clipPath><clipPath id="cc9efdf8e6"><path d="M 191.304688 -51.984375 L 439.375 223.210938 L 183.675781 453.703125 L -64.394531 178.511719 Z M 191.304688 -51.984375 " clip-rule="nonzero"/></clipPath><clipPath id="e25dac32fc"><path d="M 191.304688 -51.984375 L 439.375 223.210938 L 183.675781 453.703125 L -64.394531 178.511719 Z M 191.304688 -51.984375 " clip-rule="nonzero"/></clipPath><clipPath id="3aaebe526d"><path d="M 23 13 L 349 13 L 349 361 L 23 361 Z M 23 13 " clip-rule="nonzero"/></clipPath><clipPath id="94fd981d4c"><path d="M 277.480469 -35.457031 L 416.542969 307.953125 L 97.464844 437.164062 L -41.601562 93.753906 Z M 277.480469 -35.457031 " clip-rule="nonzero"/></clipPath><clipPath id="6dff841505"><path d="M 277.480469 -35.457031 L 416.542969 307.953125 L 97.464844 437.164062 L -41.601562 93.753906 Z M 277.480469 -35.457031 " clip-rule="nonzero"/></clipPath><clipPath id="5246ff12b2"><path d="M 40 21 L 334 21 L 334 335 L 40 335 Z M 40 21 " clip-rule="nonzero"/></clipPath><clipPath id="bea083eb57"><path d="M 269.15625 -22.851562 L 394.710938 287.195312 L 106.910156 403.738281 L -18.640625 93.695312 Z M 269.15625 -22.851562 " clip-rule="nonzero"/></clipPath><clipPath id="144516a89b"><path d="M 269.15625 -22.851562 L 394.710938 287.195312 L 106.910156 403.738281 L -18.640625 93.695312 Z M 269.15625 -22.851562 " clip-rule="nonzero"/></clipPath></defs><g clip-path="url(#f7fddfbabb)"><g clip-path="url(#3a7d32143d)"><path fill="#d2691e" d="M 2.28125 2.453125 L 372.71875 2.453125 L 372.71875 372.890625 L 2.28125 372.890625 Z M 2.28125 2.453125 " fill-opacity="1" fill-rule="nonzero"/></g></g><g clip-path="url(#f4adbdf824)"><g clip-path="url(#cc9efdf8e6)"><g clip-path="url(#e25dac32fc)"><path fill="#ffff81" d="M 53.023438 296.648438 C 77.09375 332.875 116.183594 358.28125 165.078125 362.699219 C 246.753906 370.074219 333.703125 311.1875 348.945312 225.527344 C 361.261719 156.3125 317.457031 88.707031 244.351562 85.960938 C 188.050781 83.851562 128.070312 126.324219 122.308594 186.992188 C 120.25 208.679688 126.433594 229.449219 139.398438 245.078125 C 152.363281 260.703125 173.285156 271.304688 197.960938 268.554688 C 213.640625 266.804688 228.609375 259.304688 240.5 247.453125 C 252.394531 235.601562 261.117188 216.410156 255.953125 198.136719 C 252.167969 184.734375 244.917969 179.996094 234.191406 175.777344 C 228.828125 173.667969 221.382812 171.636719 211.957031 175.246094 C 202.535156 178.855469 195.222656 188.4375 192.734375 196.523438 C 190.714844 202.496094 191.398438 208.761719 194.609375 213.628906 C 197.816406 218.492188 203.214844 221.449219 209.335938 221.695312 C 205.625 224.246094 201.082031 227.316406 197.933594 227.667969 C 187.285156 228.855469 179.375 224.933594 172.882812 217.109375 C 166.390625 209.285156 162.792969 197.128906 163.816406 186.339844 C 167.109375 151.679688 203.894531 125.941406 238.421875 127.238281 C 286.378906 129.035156 316.214844 175.332031 307.789062 222.710938 C 296.925781 283.761719 232.910156 327.507812 173.027344 322.101562 C 99.359375 315.449219 55.054688 243.441406 70.707031 170.394531 C 81.152344 121.652344 116.015625 77.289062 161.675781 52.964844 C 172.25 47.335938 177.113281 34.734375 172.542969 24.816406 C 167.972656 14.902344 155.695312 11.421875 145.121094 17.050781 C 87.328125 47.84375 43.515625 103.128906 30.070312 165.847656 C 19.886719 213.359375 28.945312 260.421875 53.019531 296.65625 Z M 53.023438 296.648438 " fill-opacity="1" fill-rule="evenodd"/></g></g></g><g clip-path="url(#3aaebe526d)"><g clip-path="url(#94fd981d4c)"><g clip-path="url(#6dff841505)"><path fill="#f2efeb" d="M 28.363281 244.910156 C 38.601562 287.183594 66.652344 324.417969 111.089844 345.285156 C 185.328125 380.132812 287.167969 354.515625 330.773438 279.222656 C 366.003906 218.390625 347.945312 139.878906 280.179688 112.3125 C 227.992188 91.085938 157.109375 110.5 130.957031 165.539062 C 121.609375 185.21875 120.320312 206.851562 127.164062 225.96875 C 134.007812 245.085938 150.042969 262.203125 174.175781 268.050781 C 189.507812 271.765625 206.136719 269.832031 221.363281 262.761719 C 236.589844 255.6875 251.347656 240.636719 252.742188 221.699219 C 253.765625 207.808594 248.574219 200.875 239.9375 193.246094 C 235.617188 189.429688 229.3125 184.976562 219.222656 185.148438 C 209.132812 185.316406 198.984375 191.820312 193.882812 198.570312 C 189.941406 203.492188 188.445312 209.617188 189.796875 215.289062 C 191.148438 220.957031 195.210938 225.578125 200.878906 227.902344 C 196.519531 229.03125 191.203125 230.363281 188.121094 229.617188 C 177.710938 227.09375 171.617188 220.707031 168.191406 211.132812 C 164.765625 201.5625 165.535156 188.90625 170.1875 179.117188 C 185.128906 147.671875 228.496094 136.058594 260.5 149.074219 C 304.953125 167.15625 317.167969 220.863281 293.058594 262.507812 C 261.980469 316.171875 186.867188 335.398438 132.4375 309.851562 C 65.484375 278.417969 48.460938 195.605469 88.136719 132.304688 C 114.617188 90.070312 162.539062 60.296875 213.765625 53.042969 C 225.625 51.367188 234.503906 41.191406 233.597656 30.308594 C 232.691406 19.425781 222.34375 11.960938 210.484375 13.632812 C 145.648438 22.816406 85.574219 59.796875 51.5 114.140625 C 25.691406 155.3125 18.117188 202.636719 28.355469 244.914062 Z M 28.363281 244.910156 " fill-opacity="1" fill-rule="evenodd"/></g></g></g><g clip-path="url(#5246ff12b2)"><g clip-path="url(#bea083eb57)"><g clip-path="url(#144516a89b)"><path fill="#ffffff" d="M 44.351562 230.15625 C 53.589844 268.304688 78.902344 301.90625 119.003906 320.734375 C 185.996094 352.183594 277.898438 329.0625 317.25 261.121094 C 349.042969 206.222656 332.746094 135.375 271.59375 110.5 C 224.5 91.34375 160.53125 108.859375 136.933594 158.53125 C 128.496094 176.289062 127.335938 195.8125 133.511719 213.0625 C 139.683594 230.316406 154.15625 245.761719 175.933594 251.039062 C 189.769531 254.390625 204.777344 252.648438 218.519531 246.265625 C 232.257812 239.882812 245.574219 226.296875 246.832031 209.210938 C 247.757812 196.675781 243.074219 190.417969 235.277344 183.53125 C 231.378906 180.089844 225.6875 176.070312 216.582031 176.222656 C 207.480469 176.378906 198.320312 182.246094 193.71875 188.339844 C 190.160156 192.78125 188.8125 198.308594 190.03125 203.425781 C 191.25 208.539062 194.917969 212.710938 200.03125 214.808594 C 196.097656 215.828125 191.300781 217.03125 188.519531 216.355469 C 179.125 214.078125 173.625 208.3125 170.535156 199.675781 C 167.441406 191.039062 168.136719 179.617188 172.335938 170.785156 C 185.820312 142.40625 224.953125 131.925781 253.832031 143.671875 C 293.949219 159.992188 304.972656 208.457031 283.214844 246.039062 C 255.167969 294.464844 187.386719 311.8125 138.269531 288.757812 C 77.847656 260.394531 62.484375 185.660156 98.292969 128.539062 C 122.1875 90.425781 165.433594 63.558594 211.660156 57.011719 C 222.363281 55.5 230.375 46.316406 229.558594 36.496094 C 228.742188 26.675781 219.402344 19.9375 208.699219 21.449219 C 150.191406 29.738281 95.976562 63.109375 65.230469 112.148438 C 41.941406 149.304688 35.105469 192.007812 44.34375 230.160156 Z M 44.351562 230.15625 " fill-opacity="1" fill-rule="evenodd"/></g></g></g></svg>